<?xml version="1.0" standalone="no"?>
<!DOCTYPE svg PUBLIC "-//W3C//DTD SVG 20010904//EN"
 "http://www.w3.org/TR/2001/REC-SVG-20010904/DTD/svg10.dtd">
<svg version="1.0" xmlns="http://www.w3.org/2000/svg"
 width="394.000000pt" height="145.000000pt" viewBox="0 0 394.000000 145.000000"
 preserveAspectRatio="xMidYMid meet">

<g transform="translate(0.000000,145.000000) scale(0.100000,-0.100000)"
fill="#000000" stroke="none">
<path d="M110 725 l0 -675 125 0 125 0 0 311 0 310 25 36 c23 35 25 53 4 53
-6 0 -19 -10 -28 -21 l-18 -22 -22 32 c-14 20 -31 31 -46 31 -13 0 -30 3 -39
6 -14 5 -14 9 0 36 12 24 14 36 5 55 -18 40 -14 53 18 53 20 0 37 9 56 31 l26
32 25 -24 c18 -16 27 -20 35 -12 8 8 4 21 -15 46 -26 34 -26 35 -26 215 l0
182 -125 0 -125 0 0 -675z m198 639 c22 -6 22 -9 22 -163 0 -150 -1 -158 -25
-192 -21 -33 -30 -37 -80 -44 -31 -3 -55 -10 -53 -13 39 -86 40 -98 19 -140
-12 -23 -21 -46 -21 -52 0 -5 21 -10 48 -10 54 0 60 -3 90 -47 21 -30 22 -38
22 -322 l0 -291 -95 0 -95 0 0 634 c0 498 3 635 13 639 17 8 128 8 155 1z"/>
<path d="M205 1309 c-4 -6 -9 -44 -11 -85 -2 -68 -1 -74 17 -74 17 0 19 8 19
79 0 75 -10 106 -25 80z"/>
<path d="M195 1091 c-8 -15 3 -31 21 -31 9 0 14 7 12 17 -4 20 -24 28 -33 14z"/>
<path d="M240 575 c0 -67 3 -85 14 -85 11 0 15 18 18 75 3 86 2 95 -18 95 -11
0 -14 -18 -14 -85z"/>
<path d="M194 246 c-3 -7 -4 -33 -2 -57 2 -32 8 -45 21 -47 15 -3 17 5 17 57
0 48 -3 61 -15 61 -9 0 -18 -6 -21 -14z"/>
<path d="M855 1388 c-49 -18 -110 -66 -136 -108 -13 -22 -32 -40 -42 -40 -22
0 -67 -43 -67 -64 0 -8 11 -28 25 -44 20 -24 25 -41 25 -87 0 -32 6 -76 12
-99 12 -40 78 -116 126 -147 l23 -14 -46 -33 c-44 -31 -51 -33 -123 -30 -75 3
-77 4 -80 30 -5 46 13 68 58 68 46 0 51 13 20 53 -31 39 -98 67 -163 67 -31 0
-59 -4 -62 -10 -3 -5 -21 -10 -39 -10 -44 0 -58 -19 -54 -72 3 -42 4 -43 46
-49 23 -3 47 -10 53 -16 17 -17 29 -85 18 -104 -18 -34 -10 -74 20 -103 16
-16 32 -44 36 -64 4 -20 12 -48 19 -62 7 -15 10 -37 5 -55 -3 -16 -7 -74 -8
-127 -1 -90 -3 -98 -23 -109 -29 -15 -38 -28 -38 -56 0 -44 33 -53 185 -53
120 0 157 4 265 30 69 16 130 30 137 30 6 0 25 -13 41 -30 35 -35 51 -37 83
-11 39 32 40 199 1 220 -23 12 -300 26 -336 17 -14 -3 -26 -13 -26 -21 0 -12
21 -15 120 -15 l120 0 0 -59 c0 -48 -3 -61 -17 -65 -69 -21 -242 -56 -275 -56
-32 0 -47 7 -74 34 -52 52 -48 99 16 198 l49 77 57 3 c55 3 57 4 40 21 -10 9
-32 17 -52 17 l-34 0 0 55 c0 42 3 55 15 55 8 0 15 9 15 20 0 19 -7 20 -143
20 -131 0 -145 2 -162 20 -15 16 -16 25 -7 45 15 32 49 37 204 33 l124 -3 17
36 c10 20 33 52 52 72 27 28 35 44 35 72 0 29 5 37 25 45 35 13 50 56 31 86
-9 12 -25 25 -36 29 -12 4 -19 12 -17 18 4 12 9 12 85 1 34 -6 42 -4 42 9 0
19 7 17 -209 64 -169 36 -199 49 -173 75 8 8 84 -5 269 -46 142 -32 262 -61
267 -66 5 -5 6 -16 2 -25 -5 -13 -14 -15 -51 -9 -36 5 -45 3 -45 -9 0 -8 7
-17 15 -21 21 -8 19 -44 -6 -90 -11 -21 -18 -40 -15 -43 13 -13 47 23 62 65
11 30 28 54 48 67 38 25 45 59 17 89 -11 11 -23 41 -27 66 -21 135 -126 230
-254 229 -30 0 -68 -5 -85 -11z m172 -44 c53 -19 106 -80 123 -139 22 -78 25
-77 -204 -26 -222 49 -227 51 -183 102 34 40 83 69 129 78 48 9 74 6 135 -15z
m-242 -254 c83 -18 84 -18 87 -58 3 -32 7 -38 33 -42 22 -4 30 -11 30 -25 0
-14 -9 -21 -30 -25 -29 -5 -30 -7 -33 -63 -4 -68 -17 -73 -79 -28 -70 51 -103
115 -103 201 0 52 6 63 29 55 9 -2 39 -9 66 -15z m-247 -189 c8 -5 12 -23 10
-47 -3 -39 -3 -39 -50 -42 l-48 -3 0 44 c0 24 3 47 7 50 9 10 65 8 81 -2z
m-124 -30 c4 -5 3 -17 0 -26 -10 -24 -48 -15 -52 13 -3 18 1 22 22 22 14 0 27
-4 30 -9z m119 -120 c6 -23 0 -31 -24 -31 -16 0 -29 19 -29 41 0 18 48 9 53
-10z m187 -227 c0 -22 -4 -24 -49 -24 -42 0 -49 3 -54 22 -8 29 2 34 57 30 41
-4 46 -7 46 -28z m-135 -10 c4 -22 2 -41 -4 -47 -16 -16 -31 3 -38 46 -5 32
-3 37 15 37 15 0 21 -9 27 -36z m128 -61 c15 -9 5 -35 -40 -105 -26 -40 -52
-95 -58 -123 -9 -39 -16 -50 -31 -50 -17 0 -19 9 -22 113 -3 112 -2 113 25
138 43 40 86 49 126 27z m445 -271 c2 -70 0 -83 -14 -89 -32 -12 -54 32 -54
109 l0 69 33 -3 32 -3 3 -83z m-518 -61 c5 -11 10 -22 10 -25 0 -3 -34 -6 -75
-6 -59 0 -75 3 -75 15 0 22 30 34 82 35 37 0 50 -4 58 -19z"/>
<path d="M742 1033 c2 -10 10 -18 18 -18 8 0 16 8 18 18 2 12 -3 17 -18 17
-15 0 -20 -5 -18 -17z"/>
<path d="M1030 601 c0 -81 6 -96 34 -85 11 4 16 19 16 48 l1 41 22 -27 c28
-35 42 -35 63 -2 20 30 31 22 36 -26 2 -23 8 -35 18 -35 12 0 16 17 18 83 3
82 3 82 -23 82 -14 0 -25 -4 -25 -8 0 -4 -13 -23 -29 -42 l-28 -34 -28 42
c-19 30 -35 42 -51 42 -23 0 -24 -3 -24 -79z"/>
<path d="M1337 603 c-38 -83 -35 -114 6 -75 31 29 86 29 111 1 36 -43 37 -4 1
74 -30 64 -40 77 -59 77 -19 0 -29 -13 -59 -77z m77 11 c10 -26 7 -34 -12 -34
-26 0 -33 10 -21 31 12 23 25 24 33 3z"/>
<path d="M1571 663 c-28 -23 -32 -94 -7 -122 21 -23 68 -33 113 -25 53 10 42
34 -15 34 -55 0 -72 12 -72 52 0 35 31 50 85 41 33 -5 37 -4 33 13 -5 28 -105
33 -137 7z"/>
<path d="M1770 666 c0 -9 12 -16 33 -18 32 -3 32 -3 37 -68 4 -49 9 -65 20
-65 11 0 16 16 20 65 5 63 6 65 34 70 58 10 25 25 -59 28 -70 2 -85 0 -85 -12z"/>
<path d="M2012 598 l3 -83 70 0 c58 0 70 3 73 18 3 14 -5 17 -52 17 -43 0 -56
3 -56 15 0 11 12 15 46 15 38 0 45 3 42 18 -2 12 -15 18 -46 20 -61 4 -49 26
16 30 37 2 52 7 52 18 0 11 -16 14 -75 14 l-76 0 3 -82z"/>
<path d="M2234 667 c-3 -8 -4 -45 -2 -83 2 -53 6 -69 18 -69 8 0 19 10 25 23
8 18 18 22 55 22 25 0 51 5 58 12 18 18 14 73 -6 91 -24 22 -140 24 -148 4z
m111 -31 c28 -20 12 -46 -29 -46 -37 0 -54 23 -35 46 15 18 40 18 64 0z"/>
<path d="M2483 605 c-28 -55 -34 -78 -26 -86 8 -8 16 -6 29 10 24 28 83 29
107 1 9 -11 23 -17 31 -14 13 5 8 21 -24 85 -53 104 -67 105 -117 4z m75 -3
c3 -17 -2 -22 -17 -22 -22 0 -25 8 -15 35 9 22 28 14 32 -13z"/>
<path d="M2700 601 c0 -44 4 -82 8 -85 11 -7 27 6 35 27 5 13 18 17 51 17 51
0 76 19 76 56 0 44 -32 64 -105 64 l-65 0 0 -79z m115 35 c17 -12 17 -16 5
-30 -18 -23 -74 -18 -78 8 -7 34 39 47 73 22z"/>
<path d="M2942 598 l3 -83 65 -3 c36 -1 71 2 79 7 25 16 0 31 -55 31 -41 0
-54 4 -54 15 0 11 12 15 46 15 38 0 45 3 42 18 -2 12 -15 18 -46 20 -64 5 -48
26 22 30 88 5 67 26 -28 30 l-77 3 3 -83z"/>
<path d="M3162 598 c2 -66 6 -83 18 -83 9 0 17 12 20 30 5 28 8 30 50 30 42 0
45 -2 50 -30 3 -18 11 -30 20 -30 12 0 16 17 18 83 3 77 2 82 -18 82 -16 0
-20 -6 -20 -31 0 -30 -1 -30 -47 -27 -44 3 -48 5 -51 31 -2 19 -9 27 -23 27
-18 0 -20 -6 -17 -82z"/>
<path d="M3430 626 c0 -35 -5 -60 -15 -70 -8 -8 -15 -31 -15 -50 0 -38 16 -48
27 -18 10 26 19 29 81 26 50 -2 57 -5 60 -24 2 -13 10 -20 20 -18 23 4 29 68
8 80 -12 7 -16 25 -16 68 l0 60 -75 0 -75 0 0 -54z m108 -29 l3 -48 -38 3
c-38 3 -38 3 -35 43 5 52 9 57 40 53 25 -3 27 -7 30 -51z"/>
<path d="M3694 605 c-24 -52 -32 -81 -26 -87 7 -7 16 -3 28 11 25 28 80 28
111 -1 41 -39 43 -7 4 72 -27 56 -42 76 -59 78 -19 3 -28 -8 -58 -73z m74 -3
c3 -17 -2 -22 -17 -22 -22 0 -25 8 -15 35 9 22 28 14 32 -13z"/>
</g>
</svg>
